<svg width="4282" height="410" viewBox="0 0 4282 410" fill="none" xmlns="http://www.w3.org/2000/svg">
<path d="M549.797 21.0085L449.588 405.419H336.236L274.905 152.431L211.385 405.419H98.0327L0.561035 21.0085H100.771L156.078 300.829L224.527 21.0085H327.474L393.186 300.829L449.04 21.0085H549.797Z" fill="white"/>
<path d="M556.236 252.093C556.236 220.698 562.077 193.135 573.759 169.406C585.806 145.677 602.051 127.424 622.495 114.647C642.938 101.87 665.755 95.4812 690.944 95.4812C712.483 95.4812 731.283 99.862 747.346 108.623C763.774 117.385 776.369 128.884 785.13 143.122V99.862H878.769V405.419H785.13V362.159C776.004 376.397 763.226 387.896 746.799 396.658C730.736 405.419 711.935 409.8 690.396 409.8C665.572 409.8 642.938 403.411 622.495 390.634C602.051 377.492 585.806 359.056 573.759 335.327C562.077 311.233 556.236 283.488 556.236 252.093ZM785.13 252.641C785.13 229.277 778.559 210.841 765.417 197.334C752.64 183.826 736.942 177.073 718.324 177.073C699.706 177.073 683.825 183.826 670.683 197.334C657.906 210.476 651.517 228.729 651.517 252.093C651.517 275.457 657.906 294.075 670.683 307.948C683.825 321.455 699.706 328.208 718.324 328.208C736.942 328.208 752.64 321.455 765.417 307.948C778.559 294.44 785.13 276.005 785.13 252.641Z" fill="white"/>
<path d="M1062.05 317.804L1128.31 99.862H1227.97L1119.55 405.419H1004.01L895.586 99.862H995.795L1062.05 317.804Z" fill="white"/>
<path d="M1533.52 247.712C1533.52 256.474 1532.97 265.6 1531.88 275.092H1319.96C1321.42 294.075 1327.44 308.678 1338.03 318.899C1348.98 328.756 1362.31 333.684 1378 333.684C1401.37 333.684 1417.61 323.828 1426.74 304.114H1526.4C1521.29 324.193 1511.98 342.263 1498.47 358.326C1485.33 374.389 1468.72 386.984 1448.64 396.11C1428.56 405.237 1406.11 409.8 1381.29 409.8C1351.35 409.8 1324.7 403.411 1301.34 390.634C1277.98 377.857 1259.72 359.604 1246.58 335.875C1233.44 312.146 1226.87 284.401 1226.87 252.641C1226.87 220.88 1233.26 193.135 1246.03 169.406C1259.18 145.677 1277.43 127.424 1300.79 114.647C1324.16 101.87 1350.99 95.4812 1381.29 95.4812C1410.86 95.4812 1437.14 101.687 1460.14 114.099C1483.14 126.512 1501.03 144.217 1513.81 167.216C1526.95 190.215 1533.52 217.047 1533.52 247.712ZM1437.69 223.071C1437.69 207.008 1432.21 194.231 1421.26 184.739C1410.31 175.247 1396.62 170.502 1380.19 170.502C1364.5 170.502 1351.17 175.065 1340.22 184.191C1329.63 193.318 1323.06 206.278 1320.51 223.071H1437.69Z" fill="white"/>
<path d="M1894.45 337.518H1750.98L1727.98 405.419H1629.96L1769.05 21.0085H1877.48L2016.57 405.419H1917.45L1894.45 337.518ZM1870.36 265.235L1822.72 124.504L1775.62 265.235H1870.36Z" fill="white"/>
<path d="M2338.72 99.862V405.419H2245.08V363.802C2235.59 377.309 2222.63 388.261 2206.2 396.658C2190.14 404.689 2172.25 408.705 2152.54 408.705C2129.17 408.705 2108.55 403.594 2090.66 393.372C2072.77 382.785 2058.9 367.635 2049.04 347.922C2039.18 328.208 2034.26 305.027 2034.26 278.378V99.862H2127.35V265.783C2127.35 286.226 2132.64 302.107 2143.23 313.423C2153.81 324.74 2168.05 330.399 2185.94 330.399C2204.19 330.399 2218.61 324.74 2229.2 313.423C2239.79 302.107 2245.08 286.226 2245.08 265.783V99.862H2338.72Z" fill="white"/>
<path d="M2554.38 326.018V405.419H2506.73C2472.78 405.419 2446.32 397.205 2427.33 380.777C2408.35 363.985 2398.86 336.787 2398.86 299.186V177.62H2361.62V99.862H2398.86V25.3893H2492.5V99.862H2553.83V177.62H2492.5V300.281C2492.5 309.408 2494.69 315.979 2499.07 319.995C2503.45 324.01 2510.75 326.018 2520.97 326.018H2554.38Z" fill="white"/>
<path d="M2723.72 409.8C2693.78 409.8 2666.77 403.411 2642.67 390.634C2618.95 377.857 2600.14 359.604 2586.27 335.875C2572.77 312.146 2566.01 284.401 2566.01 252.641C2566.01 221.245 2572.95 193.683 2586.82 169.954C2600.69 145.86 2619.68 127.424 2643.77 114.647C2667.86 101.87 2694.88 95.4812 2724.81 95.4812C2754.75 95.4812 2781.76 101.87 2805.86 114.647C2829.95 127.424 2848.93 145.86 2862.81 169.954C2876.68 193.683 2883.62 221.245 2883.62 252.641C2883.62 284.036 2876.5 311.781 2862.26 335.875C2848.39 359.604 2829.22 377.857 2804.76 390.634C2780.67 403.411 2753.65 409.8 2723.72 409.8ZM2723.72 328.756C2741.61 328.756 2756.76 322.185 2769.17 309.043C2781.95 295.9 2788.33 277.1 2788.33 252.641C2788.33 228.181 2782.13 209.381 2769.72 196.238C2757.67 183.096 2742.7 176.525 2724.81 176.525C2706.56 176.525 2691.41 183.096 2679.36 196.238C2667.32 209.016 2661.29 227.816 2661.29 252.641C2661.29 277.1 2667.13 295.9 2678.82 309.043C2690.86 322.185 2705.83 328.756 2723.72 328.756Z" fill="white"/>
<path d="M3035.69 409.8C3009.04 409.8 2985.31 405.237 2964.51 396.11C2943.7 386.984 2927.27 374.571 2915.22 358.874C2903.18 342.811 2896.42 324.923 2894.96 305.21H2987.5C2988.6 315.796 2993.53 324.375 3002.29 330.946C3011.05 337.518 3021.82 340.803 3034.6 340.803C3046.28 340.803 3055.22 338.613 3061.43 334.232C3068 329.486 3071.29 323.463 3071.29 316.161C3071.29 307.4 3066.72 301.011 3057.6 296.996C3048.47 292.615 3033.69 287.869 3013.24 282.758C2991.34 277.647 2973.08 272.354 2958.48 266.878C2943.88 261.037 2931.28 252.093 2920.7 240.046C2910.11 227.634 2904.82 211.023 2904.82 190.215C2904.82 172.692 2909.56 156.812 2919.06 142.574C2928.91 127.972 2943.15 116.472 2961.77 108.076C2980.75 99.6794 3003.2 95.4812 3029.12 95.4812C3067.45 95.4812 3097.57 104.973 3119.47 123.956C3141.74 142.939 3154.52 168.129 3157.81 199.524H3071.29C3069.83 188.937 3065.08 180.541 3057.05 174.335C3049.38 168.129 3039.16 165.026 3026.38 165.026C3015.43 165.026 3007.04 167.216 3001.19 171.597C2995.35 175.612 2992.43 181.271 2992.43 188.572C2992.43 197.334 2997 203.905 3006.12 208.286C3015.61 212.666 3030.22 217.047 3049.93 221.428C3072.56 227.269 3091 233.11 3105.24 238.951C3119.47 244.427 3131.89 253.553 3142.47 266.33C3153.43 278.743 3159.08 295.535 3159.45 316.709C3159.45 334.597 3154.34 350.66 3144.12 364.897C3134.26 378.77 3119.84 389.722 3100.86 397.753C3082.24 405.784 3060.52 409.8 3035.69 409.8Z" fill="white"/>
<path d="M3176.21 252.641C3176.21 220.88 3182.6 193.135 3195.38 169.406C3208.52 145.677 3226.59 127.424 3249.59 114.647C3272.96 101.87 3299.61 95.4812 3329.54 95.4812C3367.87 95.4812 3399.82 105.52 3425.37 125.599C3451.29 145.677 3468.26 173.97 3476.3 210.476H3376.63C3368.24 187.112 3351.99 175.43 3327.9 175.43C3310.74 175.43 3297.05 182.184 3286.83 195.691C3276.61 208.833 3271.5 227.816 3271.5 252.641C3271.5 277.465 3276.61 296.631 3286.83 310.138C3297.05 323.28 3310.74 329.851 3327.9 329.851C3351.99 329.851 3368.24 318.169 3376.63 294.805H3476.3C3468.26 330.581 3451.29 358.691 3425.37 379.135C3399.45 399.578 3367.51 409.8 3329.54 409.8C3299.61 409.8 3272.96 403.411 3249.59 390.634C3226.59 377.857 3208.52 359.604 3195.38 335.875C3182.6 312.146 3176.21 284.401 3176.21 252.641Z" fill="white"/>
<path d="M3485.86 252.093C3485.86 220.698 3491.7 193.135 3503.38 169.406C3515.43 145.677 3531.68 127.424 3552.12 114.647C3572.56 101.87 3595.38 95.4812 3620.57 95.4812C3642.11 95.4812 3660.91 99.862 3676.97 108.623C3693.4 117.385 3705.99 128.884 3714.76 143.122V99.862H3808.39V405.419H3714.76V362.159C3705.63 376.397 3692.85 387.896 3676.42 396.658C3660.36 405.419 3641.56 409.8 3620.02 409.8C3595.2 409.8 3572.56 403.411 3552.12 390.634C3531.68 377.492 3515.43 359.056 3503.38 335.327C3491.7 311.233 3485.86 283.488 3485.86 252.093ZM3714.76 252.641C3714.76 229.277 3708.19 210.841 3695.04 197.334C3682.27 183.826 3666.57 177.073 3647.95 177.073C3629.33 177.073 3613.45 183.826 3600.31 197.334C3587.53 210.476 3581.14 228.729 3581.14 252.093C3581.14 275.457 3587.53 294.075 3600.31 307.948C3613.45 321.455 3629.33 328.208 3647.95 328.208C3666.57 328.208 3682.27 321.455 3695.04 307.948C3708.19 294.44 3714.76 276.005 3714.76 252.641Z" fill="white"/>
<path d="M3947.87 0.199951V405.419H3854.23V0.199951H3947.87Z" fill="white"/>
<path d="M4281.86 247.712C4281.86 256.474 4281.31 265.6 4280.22 275.092H4068.3C4069.76 294.075 4075.78 308.678 4086.37 318.899C4097.32 328.756 4110.65 333.684 4126.35 333.684C4149.71 333.684 4165.95 323.828 4175.08 304.114H4274.74C4269.63 324.193 4260.32 342.263 4246.82 358.326C4233.67 374.389 4217.06 386.984 4196.98 396.11C4176.91 405.237 4154.46 409.8 4129.63 409.8C4099.7 409.8 4073.05 403.411 4049.68 390.634C4026.32 377.857 4008.07 359.604 3994.92 335.875C3981.78 312.146 3975.21 284.401 3975.21 252.641C3975.21 220.88 3981.6 193.135 3994.38 169.406C4007.52 145.677 4025.77 127.424 4049.13 114.647C4072.5 101.87 4099.33 95.4812 4129.63 95.4812C4159.2 95.4812 4185.49 101.687 4208.48 114.099C4231.48 126.512 4249.37 144.217 4262.15 167.216C4275.29 190.215 4281.86 217.047 4281.86 247.712ZM4186.03 223.071C4186.03 207.008 4180.56 194.231 4169.6 184.739C4158.65 175.247 4144.96 170.502 4128.54 170.502C4112.84 170.502 4099.51 175.065 4088.56 184.191C4077.97 193.318 4071.4 206.278 4068.85 223.071H4186.03Z" fill="white"/>
</svg>
