<svg width="24" height="24" viewBox="0 0 24 24" fill="none" xmlns="http://www.w3.org/2000/svg">
<path d="M3 18C2.44772 18 2 17.5523 2 17C2 16.4477 2.44772 16 3 16H11C11.5523 16 12 16.4477 12 17C12 17.5523 11.5523 18 11 18H3ZM3 13C2.44772 13 2 12.5523 2 12C2 11.4477 2.44772 11 3 11H6C6.55228 11 7 11.4477 7 12C7 12.5523 6.55228 13 6 13H3ZM3 8C2.44772 8 2 7.55228 2 7C2 6.44772 2.44772 6 3 6H6C6.55228 6 7 6.44772 7 7C7 7.55228 6.55228 8 6 8H3ZM21.3 17.3C20.9134 17.6866 20.2866 17.6866 19.9 17.3L16.75 14.15C16.35 14.4333 15.9125 14.6458 15.4375 14.7875C14.9625 14.9292 14.4833 15 14 15C12.6167 15 11.4375 14.5125 10.4625 13.5375C9.4875 12.5625 9 11.3833 9 10C9 8.61667 9.4875 7.4375 10.4625 6.4625C11.4375 5.4875 12.6167 5 14 5C15.3833 5 16.5625 5.4875 17.5375 6.4625C18.5125 7.4375 19 8.61667 19 10C19 10.4833 18.9292 10.9625 18.7875 11.4375C18.6458 11.9125 18.4333 12.35 18.15 12.75L21.3 15.9C21.6866 16.2866 21.6866 16.9134 21.3 17.3ZM14 13C14.8333 13 15.5417 12.7083 16.125 12.125C16.7083 11.5417 17 10.8333 17 10C17 9.16667 16.7083 8.45833 16.125 7.875C15.5417 7.29167 14.8333 7 14 7C13.1667 7 12.4583 7.29167 11.875 7.875C11.2917 8.45833 11 9.16667 11 10C11 10.8333 11.2917 11.5417 11.875 12.125C12.4583 12.7083 13.1667 13 14 13Z" fill="#656669"/>
</svg>
