<svg width="166" height="32" viewBox="0 0 166 32" fill="none" xmlns="http://www.w3.org/2000/svg">
<path d="M9.59999 11.0667C9.43332 11.0667 9.28666 11.14 9.18666 11.26L5.53999 14.1133C5.41332 14.2133 5.33332 14.36 5.33332 14.5333V21.2C5.33332 21.4933 5.57332 21.7333 5.86666 21.7333C6.01999 21.7333 6.15999 21.6667 6.25332 21.5667L9.93332 18.6933L9.92666 18.6867C10.0533 18.5867 10.1333 18.44 10.1333 18.2667V11.6C10.1333 11.3067 9.89332 11.0667 9.59999 11.0667Z" fill="url(#paint0_linear_1445_789)"/>
<g opacity="0.8">
<mask id="mask0_1445_789" style="mask-type:alpha" maskUnits="userSpaceOnUse" x="5" y="11" width="6" height="11">
<path d="M9.59999 11.0667C9.43332 11.0667 9.28666 11.14 9.18666 11.26L5.53999 14.1133C5.41332 14.2133 5.33332 14.36 5.33332 14.5333V21.2C5.33332 21.4933 5.57332 21.7333 5.86666 21.7333C6.01999 21.7333 6.15999 21.6667 6.25332 21.5667L9.93332 18.6933L9.92666 18.6867C10.0533 18.5867 10.1333 18.44 10.1333 18.2667V11.6C10.1333 11.3067 9.89332 11.0667 9.59999 11.0667Z" fill="url(#paint1_linear_1445_789)"/>
</mask>
<g mask="url(#mask0_1445_789)">
<g filter="url(#filter0_f_1445_789)">
<circle cx="12" cy="17.4666" r="4.26667" fill="black"/>
</g>
</g>
</g>
<g style="mix-blend-mode:multiply">
<path d="M9.59999 11.0667C9.43332 11.0667 9.28666 11.14 9.18666 11.26L5.53999 14.1133C5.41332 14.2133 5.33332 14.36 5.33332 14.5333V21.2C5.33332 21.4933 5.57332 21.7333 5.86666 21.7333C6.01999 21.7333 6.15999 21.6667 6.25332 21.5667L9.93332 18.6933L9.92666 18.6867C10.0533 18.5867 10.1333 18.44 10.1333 18.2667V11.6C10.1333 11.3067 9.89332 11.0667 9.59999 11.0667Z" fill="url(#paint2_linear_1445_789)"/>
</g>
<path d="M17.0667 10C17.0667 9.70667 16.8267 9.46667 16.5333 9.46667C16.3867 9.46667 16.2533 9.52667 16.1533 9.62001L9.75333 16.02C9.66 16.1133 9.6 16.2467 9.6 16.4V23.0667C9.6 23.36 9.84 23.6 10.1333 23.6C10.28 23.6 10.4133 23.54 10.5133 23.4467L16.9133 17.0467C17.0067 16.9533 17.0667 16.82 17.0667 16.6667V10Z" fill="url(#paint3_linear_1445_789)"/>
<mask id="mask1_1445_789" style="mask-type:alpha" maskUnits="userSpaceOnUse" x="9" y="9" width="9" height="15">
<path d="M17.0667 10C17.0667 9.70667 16.8267 9.46667 16.5333 9.46667C16.3867 9.46667 16.2533 9.52667 16.1533 9.62001L9.75333 16.02C9.66 16.1133 9.6 16.2467 9.6 16.4V23.0667C9.6 23.36 9.84 23.6 10.1333 23.6C10.28 23.6 10.4133 23.54 10.5133 23.4467L16.9133 17.0467C17.0067 16.9533 17.0667 16.82 17.0667 16.6667V10Z" fill="url(#paint4_linear_1445_789)"/>
</mask>
<g mask="url(#mask1_1445_789)">
<g opacity="0.8" filter="url(#filter1_f_1445_789)">
<path d="M23.4667 20.4C23.4667 23.3455 21.0789 25.7333 18.1333 25.7333C15.1878 25.7333 12.8 23.3455 12.8 20.4C12.8 17.4545 15.1878 15.0667 18.1333 15.0667C21.0789 15.0667 23.4667 17.4545 23.4667 20.4Z" fill="black"/>
</g>
</g>
<g style="mix-blend-mode:multiply">
<path d="M17.0667 10C17.0667 9.70667 16.8267 9.46667 16.5333 9.46667C16.3867 9.46667 16.2533 9.52667 16.1533 9.62001L9.75333 16.02C9.66 16.1133 9.6 16.2467 9.6 16.4V23.0667C9.6 23.36 9.84 23.6 10.1333 23.6C10.28 23.6 10.4133 23.54 10.5133 23.4467L16.9133 17.0467C17.0067 16.9533 17.0667 16.82 17.0667 16.6667V10Z" fill="url(#paint5_linear_1445_789)"/>
</g>
<path d="M26.6667 6.80006C26.6667 6.50672 26.4267 6.26672 26.1333 6.26672C25.9867 6.26672 25.8533 6.32672 25.7533 6.42006L14.02 18.1534C13.9267 18.2467 13.8667 18.3801 13.8667 18.5334V25.2001C13.8667 25.4934 14.1067 25.7334 14.4 25.7334C14.5467 25.7334 14.68 25.6734 14.78 25.5801L26.5133 13.8467C26.6067 13.7534 26.6667 13.6201 26.6667 13.4667V6.80006Z" fill="url(#paint6_linear_1445_789)"/>
<g clip-path="url(#clip0_1445_789)">
<path d="M47.8755 10.608C47.9627 10.608 48.0265 10.6905 48.0045 10.775L45.146 21.7403C45.1307 21.799 45.0777 21.84 45.017 21.84H41.9129C41.8513 21.84 41.7978 21.7979 41.7833 21.7381L40.1433 14.9732C40.1105 14.8378 39.9183 14.8371 39.8844 14.9721L38.1853 21.7392C38.1704 21.7984 38.1171 21.84 38.056 21.84H34.9517C34.8907 21.84 34.8375 21.7986 34.8225 21.7395L32.0421 10.7741C32.0208 10.6899 32.0844 10.608 32.1714 10.608H34.6884C34.7506 10.608 34.8045 10.651 34.8184 10.7116L36.544 18.2507L38.5179 10.7076C38.5333 10.6489 38.5863 10.608 38.6469 10.608H41.448C41.5091 10.608 41.5624 10.6496 41.5773 10.7089L43.472 18.2507L45.2135 10.7113C45.2274 10.6509 45.2813 10.608 45.3434 10.608H47.8755Z" fill="black"/>
<path d="M47.9588 17.36C47.9588 16.4427 48.1295 15.6374 48.4708 14.944C48.8228 14.2507 49.2975 13.7174 49.8948 13.344C50.4921 12.9707 51.1588 12.784 51.8948 12.784C52.5241 12.784 53.0735 12.912 53.5428 13.168C53.8684 13.3417 54.1424 13.5521 54.3649 13.7994C54.4549 13.8993 54.6468 13.8394 54.6468 13.7049V13.0454C54.6468 12.9717 54.7065 12.912 54.7801 12.912H57.2495C57.3231 12.912 57.3828 12.9717 57.3828 13.0454V21.7067C57.3828 21.7803 57.3231 21.84 57.2495 21.84H54.7801C54.7065 21.84 54.6468 21.7803 54.6468 21.7067V21.0311C54.6468 20.8979 54.46 20.8383 54.3706 20.937C54.1405 21.1911 53.8592 21.4067 53.5268 21.584C53.0575 21.84 52.5081 21.968 51.8788 21.968C51.1535 21.968 50.4921 21.7814 49.8948 21.408C49.2975 21.024 48.8228 20.4854 48.4708 19.792C48.1295 19.088 47.9588 18.2774 47.9588 17.36ZM54.6468 17.376C54.6468 16.6934 54.4548 16.1547 54.0708 15.76C53.6975 15.3654 53.2388 15.168 52.6948 15.168C52.1508 15.168 51.6868 15.3654 51.3028 15.76C50.9295 16.144 50.7428 16.6774 50.7428 17.36C50.7428 18.0427 50.9295 18.5867 51.3028 18.992C51.6868 19.3867 52.1508 19.584 52.6948 19.584C53.2388 19.584 53.6975 19.3867 54.0708 18.992C54.4548 18.5974 54.6468 18.0587 54.6468 17.376Z" fill="black"/>
<path d="M62.9942 19.28L64.9014 13.0066C64.9185 12.9504 64.9703 12.912 65.029 12.912H67.6534C67.7455 12.912 67.8098 13.0032 67.779 13.0899L64.7057 21.7513C64.6868 21.8045 64.6364 21.84 64.58 21.84H61.3923C61.3359 21.84 61.2855 21.8045 61.2667 21.7513L58.1933 13.0899C58.1625 13.0032 58.2269 12.912 58.319 12.912H60.9593C61.018 12.912 61.0698 12.9504 61.0869 13.0066L62.9942 19.28Z" fill="black"/>
<path d="M77.0258 17.232C77.0258 17.4515 77.014 17.6787 76.9905 17.9139C76.9838 17.9813 76.9267 18.032 76.8589 18.032H70.7858C70.8285 18.5867 71.0045 19.0134 71.3138 19.312C71.6338 19.6 72.0231 19.744 72.4818 19.744C73.1335 19.744 73.5956 19.4816 73.8682 18.9566C73.8922 18.9105 73.939 18.88 73.991 18.88H76.6463C76.7332 18.88 76.797 18.962 76.772 19.0453C76.6158 19.5663 76.359 20.0392 76.0018 20.464C75.6178 20.9334 75.1324 21.3014 74.5458 21.568C73.9591 21.8347 73.3031 21.968 72.5778 21.968C71.7031 21.968 70.9244 21.7814 70.2418 21.408C69.5591 21.0347 69.0258 20.5014 68.6418 19.808C68.2578 19.1147 68.0658 18.304 68.0658 17.376C68.0658 16.448 68.2524 15.6374 68.6258 14.944C69.0098 14.2507 69.5431 13.7174 70.2258 13.344C70.9085 12.9707 71.6925 12.784 72.5778 12.784C73.4418 12.784 74.2098 12.9654 74.8818 13.328C75.5538 13.6907 76.0764 14.208 76.4498 14.88C76.8338 15.552 77.0258 16.336 77.0258 17.232ZM74.0924 16.512C74.1661 16.512 74.2263 16.4522 74.2213 16.3788C74.1934 15.9715 74.0349 15.6426 73.7458 15.392C73.4258 15.1147 73.0258 14.976 72.5458 14.976C72.0871 14.976 71.6978 15.1094 71.3778 15.376C71.1013 15.6143 70.9186 15.9421 70.8296 16.3593C70.8125 16.4392 70.8753 16.512 70.9569 16.512H74.0924Z" fill="black"/>
<path d="M88.1145 19.9466C88.0961 19.8924 88.0453 19.856 87.9882 19.856H83.9874C83.9302 19.856 83.8794 19.8924 83.8611 19.9466L83.2505 21.7495C83.2321 21.8036 83.1813 21.84 83.1242 21.84H80.5458C80.4534 21.84 80.389 21.7482 80.4204 21.6613L84.388 10.696C84.4071 10.6432 84.4572 10.608 84.5133 10.608H87.4942C87.5504 10.608 87.6005 10.6432 87.6196 10.696L91.5871 21.6613C91.6186 21.7482 91.5542 21.84 91.4618 21.84H88.8514C88.7942 21.84 88.7434 21.8036 88.7251 21.7495L88.1145 19.9466ZM87.3798 17.744L85.9878 13.632L84.6118 17.744H87.3798Z" fill="black"/>
<path d="M100.987 12.912C101.061 12.912 101.121 12.9717 101.121 13.0454V21.7067C101.121 21.7803 101.061 21.84 100.987 21.84H98.518C98.4444 21.84 98.3847 21.7803 98.3847 21.7067V21.0457C98.3847 20.9154 98.2071 20.8553 98.117 20.9493C97.8786 21.1985 97.5891 21.41 97.2487 21.584C96.7793 21.8187 96.2567 21.936 95.6807 21.936C94.998 21.936 94.3953 21.7867 93.8727 21.488C93.35 21.1787 92.9447 20.736 92.6567 20.16C92.3687 19.584 92.2247 18.9067 92.2247 18.128V13.0454C92.2247 12.9717 92.2844 12.912 92.358 12.912H94.8113C94.885 12.912 94.9447 12.9717 94.9447 13.0454V17.76C94.9447 18.3574 95.0993 18.8214 95.4087 19.152C95.718 19.4827 96.134 19.648 96.6567 19.648C97.19 19.648 97.6113 19.4827 97.9207 19.152C98.23 18.8214 98.3847 18.3574 98.3847 17.76V13.0454C98.3847 12.9717 98.4444 12.912 98.518 12.912H100.987Z" fill="black"/>
<path d="M107.545 19.52C107.618 19.52 107.678 19.5797 107.678 19.6534V21.7067C107.678 21.7803 107.618 21.84 107.545 21.84H106.286C105.294 21.84 104.521 21.6 103.966 21.12C103.411 20.6294 103.134 19.8347 103.134 18.736V15.3174C103.134 15.2437 103.074 15.184 103.001 15.184H102.179C102.106 15.184 102.046 15.1243 102.046 15.0507V13.0454C102.046 12.9717 102.106 12.912 102.179 12.912H103.001C103.074 12.912 103.134 12.8523 103.134 12.7787V12.4125C103.134 12.3651 103.159 12.3213 103.2 12.2974L105.669 10.8534C105.758 10.8014 105.87 10.8655 105.87 10.9685V12.7787C105.87 12.8523 105.93 12.912 106.003 12.912H107.529C107.602 12.912 107.662 12.9717 107.662 13.0454V15.0507C107.662 15.1243 107.602 15.184 107.529 15.184H106.003C105.93 15.184 105.87 15.2437 105.87 15.3174V18.768C105.87 19.0347 105.934 19.2267 106.062 19.344C106.19 19.4614 106.403 19.52 106.702 19.52H107.545Z" fill="black"/>
<path d="M112.882 21.968C112.007 21.968 111.218 21.7814 110.514 21.408C109.821 21.0347 109.271 20.5014 108.866 19.808C108.471 19.1147 108.274 18.304 108.274 17.376C108.274 16.4587 108.477 15.6534 108.882 14.96C109.287 14.256 109.842 13.7174 110.546 13.344C111.25 12.9707 112.039 12.784 112.914 12.784C113.789 12.784 114.578 12.9707 115.282 13.344C115.986 13.7174 116.541 14.256 116.946 14.96C117.351 15.6534 117.554 16.4587 117.554 17.376C117.554 18.2934 117.346 19.104 116.93 19.808C116.525 20.5014 115.965 21.0347 115.25 21.408C114.546 21.7814 113.757 21.968 112.882 21.968ZM112.882 19.6C113.405 19.6 113.847 19.408 114.21 19.024C114.583 18.64 114.77 18.0907 114.77 17.376C114.77 16.6614 114.589 16.112 114.226 15.728C113.874 15.344 113.437 15.152 112.914 15.152C112.381 15.152 111.938 15.344 111.586 15.728C111.234 16.1014 111.058 16.6507 111.058 17.376C111.058 18.0907 111.229 18.64 111.57 19.024C111.922 19.408 112.359 19.6 112.882 19.6Z" fill="black"/>
<path d="M122.253 21.968C121.475 21.968 120.781 21.8347 120.173 21.568C119.565 21.3014 119.085 20.9387 118.733 20.48C118.411 20.0498 118.218 19.5748 118.155 19.0549C118.146 18.978 118.207 18.912 118.285 18.912H120.725C120.793 18.912 120.85 18.9639 120.864 19.0308C120.917 19.2862 121.055 19.4972 121.277 19.664C121.533 19.856 121.848 19.952 122.221 19.952C122.563 19.952 122.824 19.888 123.005 19.76C123.197 19.6214 123.293 19.4454 123.293 19.232C123.293 18.976 123.16 18.7894 122.893 18.672C122.627 18.544 122.195 18.4054 121.597 18.256C120.957 18.1067 120.424 17.952 119.997 17.792C119.571 17.6214 119.203 17.36 118.893 17.008C118.584 16.6454 118.429 16.16 118.429 15.552C118.429 15.04 118.568 14.576 118.845 14.16C119.133 13.7334 119.549 13.3974 120.093 13.152C120.648 12.9067 121.304 12.784 122.061 12.784C123.181 12.784 124.061 13.0614 124.701 13.616C125.317 14.1407 125.684 14.8277 125.803 15.677C125.814 15.7554 125.753 15.824 125.673 15.824H123.41C123.343 15.824 123.287 15.7746 123.273 15.7097C123.214 15.4537 123.082 15.2464 122.877 15.088C122.653 14.9067 122.355 14.816 121.981 14.816C121.661 14.816 121.416 14.88 121.245 15.008C121.075 15.1254 120.989 15.2907 120.989 15.504C120.989 15.76 121.123 15.952 121.389 16.08C121.667 16.208 122.093 16.336 122.669 16.464C123.331 16.6347 123.869 16.8054 124.285 16.976C124.701 17.136 125.064 17.4027 125.373 17.776C125.693 18.1387 125.859 18.6294 125.869 19.248C125.869 19.7707 125.72 20.24 125.421 20.656C125.133 21.0614 124.712 21.3814 124.157 21.616C123.613 21.8507 122.979 21.968 122.253 21.968Z" fill="black"/>
<path d="M126.615 17.376C126.615 16.448 126.802 15.6374 127.175 14.944C127.559 14.2507 128.087 13.7174 128.759 13.344C129.442 12.9707 130.221 12.784 131.095 12.784C132.215 12.784 133.149 13.0774 133.895 13.664C134.614 14.2207 135.097 14.9935 135.345 15.9825C135.366 16.0651 135.303 16.144 135.217 16.144H132.565C132.509 16.144 132.459 16.1084 132.438 16.0563C132.184 15.4321 131.72 15.12 131.047 15.12C130.546 15.12 130.146 15.3174 129.847 15.712C129.549 16.096 129.399 16.6507 129.399 17.376C129.399 18.1014 129.549 18.6614 129.847 19.056C130.146 19.44 130.546 19.632 131.047 19.632C131.72 19.632 132.184 19.3199 132.438 18.6957C132.459 18.6436 132.509 18.608 132.565 18.608H135.217C135.302 18.608 135.366 18.6873 135.344 18.7701C135.096 19.7386 134.613 20.5059 133.895 21.072C133.138 21.6694 132.205 21.968 131.095 21.968C130.221 21.968 129.442 21.7814 128.759 21.408C128.087 21.0347 127.559 20.5014 127.175 19.808C126.802 19.1147 126.615 18.304 126.615 17.376Z" fill="black"/>
<path d="M135.919 17.36C135.919 16.4427 136.089 15.6374 136.431 14.944C136.783 14.2507 137.257 13.7174 137.855 13.344C138.452 12.9707 139.119 12.784 139.855 12.784C140.484 12.784 141.033 12.912 141.503 13.168C141.828 13.3417 142.102 13.5521 142.325 13.7994C142.415 13.8993 142.607 13.8394 142.607 13.7049V13.0454C142.607 12.9717 142.666 12.912 142.74 12.912H145.209C145.283 12.912 145.343 12.9717 145.343 13.0454V21.7067C145.343 21.7803 145.283 21.84 145.209 21.84H142.74C142.666 21.84 142.607 21.7803 142.607 21.7067V21.0311C142.607 20.8979 142.42 20.8383 142.331 20.937C142.1 21.1911 141.819 21.4067 141.487 21.584C141.017 21.84 140.468 21.968 139.839 21.968C139.113 21.968 138.452 21.7814 137.855 21.408C137.257 21.024 136.783 20.4854 136.431 19.792C136.089 19.088 135.919 18.2774 135.919 17.36ZM142.607 17.376C142.607 16.6934 142.415 16.1547 142.031 15.76C141.657 15.3654 141.199 15.168 140.655 15.168C140.111 15.168 139.647 15.3654 139.263 15.76C138.889 16.144 138.703 16.6774 138.703 17.36C138.703 18.0427 138.889 18.5867 139.263 18.992C139.647 19.3867 140.111 19.584 140.655 19.584C141.199 19.584 141.657 19.3867 142.031 18.992C142.415 18.5974 142.607 18.0587 142.607 17.376Z" fill="black"/>
<path d="M149.474 7.45069C149.562 7.39871 149.674 7.46282 149.674 7.56579V21.7067C149.674 21.7803 149.614 21.84 149.541 21.84H147.071C146.998 21.84 146.938 21.7803 146.938 21.7067V9.00984C146.938 8.96247 146.963 8.91866 147.004 8.89474L149.474 7.45069Z" fill="black"/>
<path d="M159.689 17.232C159.689 17.4515 159.677 17.6787 159.654 17.9139C159.647 17.9813 159.59 18.032 159.522 18.032H153.449C153.492 18.5867 153.668 19.0134 153.977 19.312C154.297 19.6 154.686 19.744 155.145 19.744C155.797 19.744 156.259 19.4816 156.531 18.9566C156.555 18.9105 156.602 18.88 156.654 18.88H159.309C159.396 18.88 159.46 18.962 159.435 19.0453C159.279 19.5663 159.022 20.0392 158.665 20.464C158.281 20.9334 157.796 21.3014 157.209 21.568C156.622 21.8347 155.966 21.968 155.241 21.968C154.366 21.968 153.588 21.7814 152.905 21.408C152.222 21.0347 151.689 20.5014 151.305 19.808C150.921 19.1147 150.729 18.304 150.729 17.376C150.729 16.448 150.916 15.6374 151.289 14.944C151.673 14.2507 152.206 13.7174 152.889 13.344C153.572 12.9707 154.356 12.784 155.241 12.784C156.105 12.784 156.873 12.9654 157.545 13.328C158.217 13.6907 158.74 14.208 159.113 14.88C159.497 15.552 159.689 16.336 159.689 17.232ZM156.756 16.512C156.829 16.512 156.889 16.4522 156.884 16.3788C156.857 15.9715 156.698 15.6426 156.409 15.392C156.089 15.1147 155.689 14.976 155.209 14.976C154.75 14.976 154.361 15.1094 154.041 15.376C153.764 15.6143 153.582 15.9421 153.493 16.3593C153.476 16.4392 153.538 16.512 153.62 16.512H156.756Z" fill="black"/>
</g>
<defs>
<filter id="filter0_f_1445_789" x="-0.266676" y="5.19995" width="24.5333" height="24.5333" filterUnits="userSpaceOnUse" color-interpolation-filters="sRGB">
<feFlood flood-opacity="0" result="BackgroundImageFix"/>
<feBlend mode="normal" in="SourceGraphic" in2="BackgroundImageFix" result="shape"/>
<feGaussianBlur stdDeviation="4" result="effect1_foregroundBlur_1445_789"/>
</filter>
<filter id="filter1_f_1445_789" x="-67.2" y="-64.9333" width="170.667" height="170.667" filterUnits="userSpaceOnUse" color-interpolation-filters="sRGB">
<feFlood flood-opacity="0" result="BackgroundImageFix"/>
<feBlend mode="normal" in="SourceGraphic" in2="BackgroundImageFix" result="shape"/>
<feGaussianBlur stdDeviation="40" result="effect1_foregroundBlur_1445_789"/>
</filter>
<linearGradient id="paint0_linear_1445_789" x1="5.33332" y1="14.8404" x2="10.1333" y2="14.8404" gradientUnits="userSpaceOnUse">
<stop stop-color="#1211DC"/>
<stop offset="1" stop-color="#5200FF"/>
</linearGradient>
<linearGradient id="paint1_linear_1445_789" x1="5.33332" y1="14.8404" x2="10.1333" y2="14.8404" gradientUnits="userSpaceOnUse">
<stop stop-color="#1511D2"/>
<stop offset="1" stop-color="#AC02FF"/>
</linearGradient>
<linearGradient id="paint2_linear_1445_789" x1="5.33332" y1="14.8404" x2="10.1333" y2="14.8404" gradientUnits="userSpaceOnUse">
<stop stop-color="#1511D2"/>
<stop offset="1" stop-color="#AC02FF"/>
</linearGradient>
<linearGradient id="paint3_linear_1445_789" x1="9.6" y1="14.4669" x2="17.0667" y2="14.4669" gradientUnits="userSpaceOnUse">
<stop stop-color="#1511D2"/>
<stop offset="1" stop-color="#AC02FF"/>
</linearGradient>
<linearGradient id="paint4_linear_1445_789" x1="9.6" y1="14.4669" x2="17.0667" y2="14.4669" gradientUnits="userSpaceOnUse">
<stop stop-color="#1511D2"/>
<stop offset="1" stop-color="#AC02FF"/>
</linearGradient>
<linearGradient id="paint5_linear_1445_789" x1="9.6" y1="14.4669" x2="17.0667" y2="14.4669" gradientUnits="userSpaceOnUse">
<stop stop-color="#1511D2"/>
<stop offset="1" stop-color="#AC02FF"/>
</linearGradient>
<linearGradient id="paint6_linear_1445_789" x1="13.8667" y1="13.1538" x2="26.6667" y2="13.1538" gradientUnits="userSpaceOnUse">
<stop stop-color="#1511D2"/>
<stop offset="1" stop-color="#AC02FF"/>
</linearGradient>
<clipPath id="clip0_1445_789">
<rect width="127.733" height="32" fill="white" transform="translate(32)"/>
</clipPath>
</defs>
</svg>
