<svg width="24" height="24" viewBox="0 0 24 24" fill="none" xmlns="http://www.w3.org/2000/svg">
<path d="M13.0108 22C12.4213 22 11.912 21.588 11.7889 21.0115L9 7.95L6.9721 17.2138C6.87161 17.6729 6.46511 18 5.99523 18H3C2.44771 18 2 17.5523 2 17C2 16.4477 2.44772 16 3 16H5.2L7.81572 3.96308C7.93787 3.40096 8.43532 3 9.01056 3C9.58756 3 10.086 3.40337 10.2064 3.96768L13.05 17.3L14.7688 9.98399C14.9043 9.4075 15.4186 9 16.0108 9C16.593 9 17.1014 9.39418 17.2464 9.95805L18.8 16H21C21.5523 16 22 16.4477 22 17C22 17.5523 21.5523 18 21 18H18.0268C17.5698 18 17.1709 17.6902 17.0578 17.2474L16.05 13.3L14.2269 21.0372C14.0939 21.6013 13.5904 22 13.0108 22Z" fill="#656669"/>
</svg>
