<svg width="24" height="24" viewBox="0 0 24 24" fill="none" xmlns="http://www.w3.org/2000/svg">
<path d="M16 22C15.4477 22 15 21.5523 15 21V19.5L8 16H4C3.44772 16 3 15.5523 3 15V11C3 10.4477 3.44772 10 4 10H7.3L10 6.9V3C10 2.44772 10.4477 2 11 2H15C15.5523 2 16 2.44772 16 3V7C16 7.55228 15.5523 8 15 8H11.7L9 11.1V14.25L15 17.25V17C15 16.4477 15.4477 16 16 16H20C20.5523 16 21 16.4477 21 17V21C21 21.5523 20.5523 22 20 22H16ZM12 6H14V4H12V6ZM5 14H7V12H5V14ZM17 20H19V18H17V20Z" fill="#656669"/>
</svg>
