<svg width="24" height="24" viewBox="0 0 24 24" fill="none" xmlns="http://www.w3.org/2000/svg">
<path fill-rule="evenodd" clip-rule="evenodd" d="M12 4.92898L10.5857 6.3432L12 7.75741L13.4142 6.3432L12 4.92898ZM15.5355 16.9498L12.7071 14.1214C12.3165 13.7308 11.6834 13.7308 11.2928 14.1214L8.46442 16.9498C8.0739 17.3403 8.0739 17.9735 8.46442 18.364L11.2928 21.1924C11.6834 21.583 12.3165 21.583 12.7071 21.1924L15.5355 18.364C15.926 17.9735 15.926 17.3403 15.5355 16.9498ZM16.9497 8.46452L14.1213 11.2929C13.7308 11.6835 13.7308 12.3166 14.1213 12.7072L16.9497 15.5356C17.3402 15.9261 17.9734 15.9261 18.3639 15.5356L21.1923 12.7072C21.5829 12.3166 21.5829 11.6835 21.1923 11.2929L18.3639 8.46452C17.9734 8.07399 17.3402 8.07399 16.9497 8.46452ZM6.3431 10.5858L4.92889 12.0001L6.3431 13.4143L7.75732 12.0001L6.3431 10.5858ZM17.6568 10.5858L16.2426 12.0001L17.6568 13.4143L19.071 12.0001L17.6568 10.5858ZM9.87864 11.2929L7.05021 8.46452C6.65968 8.07399 6.02652 8.07399 5.636 8.46452L2.80757 11.2929C2.41704 11.6835 2.41704 12.3166 2.80757 12.7072L5.636 15.5356C6.02652 15.9261 6.65968 15.9261 7.05021 15.5356L9.87864 12.7072C10.2692 12.3166 10.2692 11.6835 9.87864 11.2929ZM12 16.2427L10.5857 17.6569L12 19.0711L13.4142 17.6569L12 16.2427ZM8.46442 7.0503L11.2928 9.87873C11.6834 10.2693 12.3165 10.2693 12.7071 9.87873L15.5355 7.0503C15.926 6.65978 15.926 6.02662 15.5355 5.63609L12.7071 2.80766C12.3165 2.41714 11.6834 2.41714 11.2929 2.80766L8.46442 5.63609C8.0739 6.02662 8.0739 6.65978 8.46442 7.0503Z" fill="#656669"/>
</svg>
