<svg width="204" height="232" viewBox="0 0 204 232" fill="none" xmlns="http://www.w3.org/2000/svg">
<rect x="1" y="1" width="62" height="62" rx="7.192" fill="url(#paint0_linear_164_189)"/>
<rect x="1" y="1" width="62" height="62" rx="7.192" stroke="url(#paint1_linear_164_189)" stroke-width="2"/>
<path d="M21.4826 23.8848C21.2095 23.8848 20.9692 24.0049 20.8054 24.2015L14.8307 28.8764C14.6231 29.0403 14.4921 29.2806 14.4921 29.5646V40.4872C14.4921 40.9678 14.8853 41.361 15.3659 41.361C15.6171 41.361 15.8465 41.2518 15.9994 41.088L22.0287 36.3803L22.0178 36.3694C22.2253 36.2055 22.3564 35.9652 22.3564 35.6812V24.7586C22.3564 24.278 21.9632 23.8848 21.4826 23.8848Z" fill="white"/>
<path d="M33.7159 22.137C33.7159 21.6564 33.3227 21.2632 32.8421 21.2632C32.6018 21.2632 32.3834 21.3615 32.2195 21.5144L21.7338 32.0002C21.5808 32.1531 21.4825 32.3715 21.4825 32.6228V43.5454C21.4825 44.026 21.8758 44.4192 22.3564 44.4192C22.5967 44.4192 22.8151 44.3209 22.9789 44.168L33.4647 33.6823C33.6176 33.5293 33.7159 33.3109 33.7159 33.0597V22.137Z" fill="white"/>
<path d="M49.4446 16.8943C49.4446 16.4137 49.0514 16.0205 48.5708 16.0205C48.3305 16.0205 48.112 16.1188 47.9482 16.2717L28.7243 35.4956C28.5714 35.6485 28.4731 35.867 28.4731 36.1182V47.0409C28.4731 47.5215 28.8663 47.9147 29.3469 47.9147C29.5872 47.9147 29.8056 47.8164 29.9695 47.6635L49.1934 28.4396C49.3463 28.2867 49.4446 28.0682 49.4446 27.817V16.8943Z" fill="white"/>
<path d="M77.0117 27.1016H78.8438L81.9746 34.7715H82.0977L85.2285 27.1016H87.0605V37H85.625V29.8496H85.5293L82.6309 36.9863H81.4414L78.5293 29.8359H78.4473V37H77.0117V27.1016ZM92.1602 37.1504C89.9727 37.1504 88.6328 35.6465 88.6328 33.3359C88.6328 31.0527 90 29.4805 92.0645 29.4805C93.7598 29.4805 95.3594 30.5332 95.3594 33.2129V33.7324H90.082C90.123 35.1406 90.9502 35.9473 92.1738 35.9473C93.0078 35.9473 93.541 35.5918 93.7871 35.1406H95.2637C94.9355 36.3438 93.7871 37.1504 92.1602 37.1504ZM90.0957 32.6387H93.9238C93.9238 31.5039 93.1992 30.6836 92.0781 30.6836C90.9092 30.6836 90.1504 31.5859 90.0957 32.6387ZM100.281 29.5762V30.7383H98.7637V34.8125C98.7637 35.6465 99.1875 35.7969 99.6523 35.8105C99.8574 35.8105 100.186 35.7832 100.391 35.7695V37.041C100.186 37.0684 99.8711 37.0957 99.4746 37.0957C98.3262 37.0957 97.3008 36.4668 97.3145 35.1133V30.7383H96.2207V29.5762H97.3145V27.7988H98.7637V29.5762H100.281ZM101.703 37V29.5762H103.111V30.752H103.193C103.467 29.959 104.205 29.4668 105.08 29.4668C105.258 29.4668 105.545 29.4805 105.695 29.4941V30.8887C105.572 30.8613 105.23 30.8066 104.93 30.8066C103.918 30.8066 103.166 31.5039 103.166 32.4746V37H101.703ZM106.789 37V29.5762H108.252V37H106.789ZM107.527 28.4277C107.021 28.4277 106.598 28.0449 106.598 27.5664C106.598 27.0879 107.021 26.7051 107.527 26.7051C108.02 26.7051 108.443 27.0879 108.443 27.5664C108.443 28.0449 108.02 28.4277 107.527 28.4277ZM113.174 37.1504C111.014 37.1504 109.701 35.5508 109.701 33.3223C109.701 31.0527 111.055 29.4805 113.146 29.4805C114.842 29.4805 116.072 30.4785 116.223 31.9824H114.801C114.65 31.2852 114.09 30.6973 113.174 30.6973C111.971 30.6973 111.164 31.6953 111.164 33.2812C111.164 34.9082 111.957 35.9062 113.174 35.9062C113.994 35.9062 114.623 35.4551 114.801 34.6484H116.223C116.059 36.084 114.924 37.1504 113.174 37.1504ZM121.773 31.5996C121.637 31.0117 121.172 30.6289 120.365 30.6289C119.531 30.6289 118.93 31.0664 118.943 31.627C118.93 32.0645 119.285 32.3789 120.105 32.5703L121.281 32.8438C122.648 33.1445 123.305 33.8008 123.318 34.8535C123.305 36.1934 122.184 37.1504 120.283 37.1504C118.506 37.1504 117.439 36.3574 117.262 34.9766H118.752C118.875 35.6465 119.395 35.9746 120.27 35.9746C121.213 35.9746 121.814 35.5918 121.828 34.9629C121.814 34.4844 121.459 34.1699 120.68 33.9922L119.518 33.7461C118.178 33.4453 117.48 32.7344 117.48 31.709C117.48 30.3828 118.629 29.4805 120.352 29.4805C122.006 29.4805 123.031 30.3281 123.182 31.5996H121.773Z" fill="#57157E"/>
<rect x="1" y="85" width="62" height="62" rx="7.192" fill="#FAFAFB"/>
<rect x="1" y="85" width="62" height="62" rx="7.192" stroke="url(#paint2_linear_164_189)" stroke-width="2"/>
<rect x="22.4" y="90.3999" width="19.2" height="9.6" rx="4.096" fill="#3354FF"/>
<rect x="10.112" y="110.112" width="18.176" height="8.576" rx="3.584" fill="#FAFAFB"/>
<rect x="10.112" y="110.112" width="18.176" height="8.576" rx="3.584" stroke="#3354FF" stroke-width="1.024"/>
<rect x="10.112" y="129.312" width="18.176" height="8.576" rx="3.584" fill="#FAFAFB"/>
<rect x="10.112" y="129.312" width="18.176" height="8.576" rx="3.584" stroke="#3354FF" stroke-width="1.024"/>
<rect x="35.712" y="110.112" width="18.176" height="8.576" rx="3.584" fill="#FAFAFB"/>
<rect x="35.712" y="110.112" width="18.176" height="8.576" rx="3.584" stroke="#D4D5D8" stroke-width="1.024"/>
<path d="M19.2 119.2L19.2 128.8" stroke="#2F3033" stroke-width="1.024"/>
<path d="M19.2 104.8L19.2 109.6" stroke="#2F3033" stroke-width="1.024"/>
<path d="M45.2 105.2H18.8" stroke="#2F3033" stroke-width="1.024"/>
<path d="M44.8 104.8L44.8 109.6" stroke="#2F3033" stroke-width="1.024"/>
<path d="M32 100L32 104.8" stroke="#2F3033" stroke-width="1.024"/>
<path d="M82.3984 113.713C82.3027 112.797 81.4961 112.264 80.3613 112.264C79.1445 112.264 78.3789 112.879 78.3789 113.727C78.3789 114.67 79.4043 115.025 80.1836 115.217L81.1406 115.477C82.4121 115.777 83.9844 116.475 83.998 118.266C83.9844 119.934 82.6582 121.164 80.3203 121.164C78.1055 121.164 76.7109 120.057 76.6152 118.252H78.1191C78.2148 119.332 79.1582 119.852 80.3203 119.852C81.5781 119.852 82.4941 119.209 82.5078 118.238C82.4941 117.377 81.6875 117.021 80.6348 116.748L79.459 116.434C77.873 115.996 76.875 115.189 76.875 113.809C76.875 112.1 78.4062 110.965 80.4023 110.965C82.4121 110.965 83.8203 112.113 83.8613 113.713H82.3984ZM88.6328 121.15C86.4727 121.15 85.1602 119.551 85.1602 117.322C85.1602 115.053 86.5137 113.48 88.6055 113.48C90.3008 113.48 91.5312 114.479 91.6816 115.982H90.2598C90.1094 115.285 89.5488 114.697 88.6328 114.697C87.4297 114.697 86.623 115.695 86.623 117.281C86.623 118.908 87.416 119.906 88.6328 119.906C89.4531 119.906 90.082 119.455 90.2598 118.648H91.6816C91.5176 120.084 90.3828 121.15 88.6328 121.15ZM92.7207 118.908C92.7207 117.213 94.1562 116.775 95.4961 116.68C95.9883 116.646 97.1025 116.584 97.4512 116.57L97.4375 115.982C97.4375 115.148 96.9316 114.656 95.9336 114.656C95.0723 114.656 94.5527 115.053 94.4023 115.6H92.9531C93.0898 114.369 94.2383 113.48 95.9883 113.48C97.1641 113.48 98.9004 113.918 98.9004 116.064V121H97.4785V119.988H97.4238C97.1367 120.549 96.4531 121.164 95.2227 121.164C93.8145 121.164 92.7207 120.357 92.7207 118.908ZM94.1426 118.922C94.1426 119.633 94.7305 120.002 95.5508 120.002C96.7402 120.002 97.4512 119.209 97.4512 118.32V117.637L95.7012 117.76C94.7441 117.828 94.1426 118.184 94.1426 118.922ZM102.127 111.102V121H100.664V111.102H102.127ZM103.904 121V113.576H105.367V121H103.904ZM104.643 112.428C104.137 112.428 103.713 112.045 103.713 111.566C103.713 111.088 104.137 110.705 104.643 110.705C105.135 110.705 105.559 111.088 105.559 111.566C105.559 112.045 105.135 112.428 104.643 112.428ZM108.607 116.598V121H107.145V113.576H108.553V114.793H108.635C108.99 114 109.715 113.48 110.822 113.48C112.354 113.48 113.352 114.438 113.352 116.283V121H111.902V116.461C111.902 115.381 111.314 114.738 110.33 114.738C109.332 114.738 108.607 115.408 108.607 116.598ZM118.246 123.939C116.373 123.939 115.143 123.105 115.006 121.725H116.496C116.633 122.422 117.289 122.764 118.26 122.764C119.422 122.764 120.16 122.271 120.16 121.109V119.646H120.064C119.805 120.125 119.271 120.891 117.904 120.891C116.154 120.891 114.801 119.578 114.801 117.213C114.801 114.848 116.127 113.48 117.918 113.48C119.299 113.48 119.805 114.314 120.078 114.779H120.174V113.576H121.596V121.164C121.596 123.064 120.16 123.939 118.246 123.939ZM118.232 119.688C119.477 119.688 120.174 118.771 120.174 117.24C120.174 115.736 119.49 114.725 118.232 114.725C116.934 114.725 116.291 115.818 116.291 117.24C116.291 118.689 116.961 119.688 118.232 119.688ZM126.914 121V111.102H130.441C132.738 111.102 133.873 112.482 133.873 114.314C133.873 116.133 132.738 117.527 130.441 117.527H128.418V121H126.914ZM128.418 116.242H130.291C131.754 116.242 132.355 115.422 132.355 114.314C132.355 113.193 131.754 112.387 130.291 112.387H128.418V116.242ZM136.799 111.102V121H135.336V111.102H136.799ZM138.234 118.908C138.234 117.213 139.67 116.775 141.01 116.68C141.502 116.646 142.616 116.584 142.965 116.57L142.951 115.982C142.951 115.148 142.445 114.656 141.447 114.656C140.586 114.656 140.066 115.053 139.916 115.6H138.467C138.604 114.369 139.752 113.48 141.502 113.48C142.678 113.48 144.414 113.918 144.414 116.064V121H142.992V119.988H142.938C142.65 120.549 141.967 121.164 140.736 121.164C139.328 121.164 138.234 120.357 138.234 118.908ZM139.656 118.922C139.656 119.633 140.244 120.002 141.064 120.002C142.254 120.002 142.965 119.209 142.965 118.32V117.637L141.215 117.76C140.258 117.828 139.656 118.184 139.656 118.922ZM147.641 116.598V121H146.178V113.576H147.586V114.793H147.668C148.023 114 148.748 113.48 149.855 113.48C151.387 113.48 152.385 114.438 152.385 116.283V121H150.936V116.461C150.936 115.381 150.348 114.738 149.363 114.738C148.365 114.738 147.641 115.408 147.641 116.598ZM158.332 115.6C158.195 115.012 157.73 114.629 156.924 114.629C156.09 114.629 155.488 115.066 155.502 115.627C155.488 116.064 155.844 116.379 156.664 116.57L157.84 116.844C159.207 117.145 159.863 117.801 159.877 118.854C159.863 120.193 158.742 121.15 156.842 121.15C155.064 121.15 153.998 120.357 153.82 118.977H155.311C155.434 119.646 155.953 119.975 156.828 119.975C157.771 119.975 158.373 119.592 158.387 118.963C158.373 118.484 158.018 118.17 157.238 117.992L156.076 117.746C154.736 117.445 154.039 116.734 154.039 115.709C154.039 114.383 155.188 113.48 156.91 113.48C158.564 113.48 159.59 114.328 159.74 115.6H158.332Z" fill="#57157E"/>
<rect x="1" y="169" width="62" height="62" rx="7.192" fill="#FAFAFB"/>
<rect x="1" y="169" width="62" height="62" rx="7.192" stroke="url(#paint3_linear_164_189)" stroke-width="2"/>
<rect x="6.39999" y="174.4" width="51.2" height="19.2" rx="2.048" fill="#3354FF"/>
<rect x="6.39999" y="206.4" width="22.4" height="19.2" rx="2.048" fill="#CAD3FD"/>
<rect x="6.39999" y="196.8" width="22.4" height="6.4" rx="2.048" fill="#8497FE"/>
<rect x="32" y="196.8" width="25.6" height="28.8" rx="2.048" fill="#EAEDFD"/>
<path d="M82.3984 186.713C82.3027 185.797 81.4961 185.264 80.3613 185.264C79.1445 185.264 78.3789 185.879 78.3789 186.727C78.3789 187.67 79.4043 188.025 80.1836 188.217L81.1406 188.477C82.4121 188.777 83.9844 189.475 83.998 191.266C83.9844 192.934 82.6582 194.164 80.3203 194.164C78.1055 194.164 76.7109 193.057 76.6152 191.252H78.1191C78.2148 192.332 79.1582 192.852 80.3203 192.852C81.5781 192.852 82.4941 192.209 82.5078 191.238C82.4941 190.377 81.6875 190.021 80.6348 189.748L79.459 189.434C77.873 188.996 76.875 188.189 76.875 186.809C76.875 185.1 78.4062 183.965 80.4023 183.965C82.4121 183.965 83.8203 185.113 83.8613 186.713H82.3984ZM88.6328 194.15C86.4727 194.15 85.1602 192.551 85.1602 190.322C85.1602 188.053 86.5137 186.48 88.6055 186.48C90.3008 186.48 91.5312 187.479 91.6816 188.982H90.2598C90.1094 188.285 89.5488 187.697 88.6328 187.697C87.4297 187.697 86.623 188.695 86.623 190.281C86.623 191.908 87.416 192.906 88.6328 192.906C89.4531 192.906 90.082 192.455 90.2598 191.648H91.6816C91.5176 193.084 90.3828 194.15 88.6328 194.15ZM92.7207 191.908C92.7207 190.213 94.1562 189.775 95.4961 189.68C95.9883 189.646 97.1025 189.584 97.4512 189.57L97.4375 188.982C97.4375 188.148 96.9316 187.656 95.9336 187.656C95.0723 187.656 94.5527 188.053 94.4023 188.6H92.9531C93.0898 187.369 94.2383 186.48 95.9883 186.48C97.1641 186.48 98.9004 186.918 98.9004 189.064V194H97.4785V192.988H97.4238C97.1367 193.549 96.4531 194.164 95.2227 194.164C93.8145 194.164 92.7207 193.357 92.7207 191.908ZM94.1426 191.922C94.1426 192.633 94.7305 193.002 95.5508 193.002C96.7402 193.002 97.4512 192.209 97.4512 191.32V190.637L95.7012 190.76C94.7441 190.828 94.1426 191.184 94.1426 191.922ZM102.127 184.102V194H100.664V184.102H102.127ZM103.904 194V186.576H105.367V194H103.904ZM104.643 185.428C104.137 185.428 103.713 185.045 103.713 184.566C103.713 184.088 104.137 183.705 104.643 183.705C105.135 183.705 105.559 184.088 105.559 184.566C105.559 185.045 105.135 185.428 104.643 185.428ZM108.607 189.598V194H107.145V186.576H108.553V187.793H108.635C108.99 187 109.715 186.48 110.822 186.48C112.354 186.48 113.352 187.438 113.352 189.283V194H111.902V189.461C111.902 188.381 111.314 187.738 110.33 187.738C109.332 187.738 108.607 188.408 108.607 189.598ZM118.246 196.939C116.373 196.939 115.143 196.105 115.006 194.725H116.496C116.633 195.422 117.289 195.764 118.26 195.764C119.422 195.764 120.16 195.271 120.16 194.109V192.646H120.064C119.805 193.125 119.271 193.891 117.904 193.891C116.154 193.891 114.801 192.578 114.801 190.213C114.801 187.848 116.127 186.48 117.918 186.48C119.299 186.48 119.805 187.314 120.078 187.779H120.174V186.576H121.596V194.164C121.596 196.064 120.16 196.939 118.246 196.939ZM118.232 192.688C119.477 192.688 120.174 191.771 120.174 190.24C120.174 188.736 119.49 187.725 118.232 187.725C116.934 187.725 116.291 188.818 116.291 190.24C116.291 191.689 116.961 192.688 118.232 192.688ZM83.7109 209.328C83.4648 208.057 82.4121 207.346 81.1543 207.346C79.4453 207.346 78.1738 208.658 78.1738 211.051C78.1738 213.457 79.459 214.756 81.1543 214.756C82.3984 214.756 83.4512 214.059 83.7109 212.801L85.2285 212.814C84.9141 214.77 83.3145 216.137 81.1406 216.137C78.5566 216.137 76.6836 214.209 76.6836 211.051C76.6836 207.879 78.5703 205.965 81.1406 205.965C83.2324 205.965 84.8867 207.195 85.2285 209.328H83.7109ZM89.877 216.15C87.7715 216.15 86.4043 214.619 86.4043 212.322C86.4043 210.012 87.7715 208.48 89.877 208.48C91.9688 208.48 93.3359 210.012 93.3359 212.322C93.3359 214.619 91.9688 216.15 89.877 216.15ZM89.877 214.934C91.2168 214.934 91.8594 213.744 91.8594 212.322C91.8594 210.9 91.2168 209.684 89.877 209.684C88.5098 209.684 87.8672 210.9 87.8672 212.322C87.8672 213.744 88.5098 214.934 89.877 214.934ZM94.7715 216V208.576H96.1797V209.793H96.2617C96.5762 208.959 97.3008 208.48 98.2852 208.48C99.2695 208.48 99.9668 208.973 100.281 209.793H100.363C100.719 208.986 101.512 208.48 102.592 208.48C103.932 208.48 104.889 209.328 104.889 211.023V216H103.426V211.16C103.426 210.162 102.797 209.738 102.031 209.738C101.088 209.738 100.555 210.381 100.555 211.27V216H99.1055V211.078C99.1055 210.271 98.5449 209.738 97.752 209.738C96.9316 209.738 96.2344 210.422 96.2344 211.42V216H94.7715ZM106.652 218.789V208.576H108.074V209.779H108.197C108.457 209.314 108.963 208.48 110.33 208.48C112.121 208.48 113.447 209.889 113.447 212.309C113.447 214.701 112.148 216.15 110.344 216.15C108.99 216.15 108.457 215.33 108.197 214.838H108.115V218.789H106.652ZM108.088 212.281C108.088 213.84 108.771 214.906 110.016 214.906C111.301 214.906 111.971 213.771 111.971 212.281C111.971 210.818 111.314 209.725 110.016 209.725C108.758 209.725 108.088 210.736 108.088 212.281ZM118.041 216.15C115.936 216.15 114.568 214.619 114.568 212.322C114.568 210.012 115.936 208.48 118.041 208.48C120.133 208.48 121.5 210.012 121.5 212.322C121.5 214.619 120.133 216.15 118.041 216.15ZM118.041 214.934C119.381 214.934 120.023 213.744 120.023 212.322C120.023 210.9 119.381 209.684 118.041 209.684C116.674 209.684 116.031 210.9 116.031 212.322C116.031 213.744 116.674 214.934 118.041 214.934ZM124.398 211.598V216H122.936V208.576H124.344V209.793H124.426C124.781 209 125.506 208.48 126.613 208.48C128.145 208.48 129.143 209.438 129.143 211.283V216H127.693V211.461C127.693 210.381 127.105 209.738 126.121 209.738C125.123 209.738 124.398 210.408 124.398 211.598ZM134.119 216.15C131.932 216.15 130.592 214.646 130.592 212.336C130.592 210.053 131.959 208.48 134.023 208.48C135.719 208.48 137.318 209.533 137.318 212.213V212.732H132.041C132.082 214.141 132.909 214.947 134.133 214.947C134.967 214.947 135.5 214.592 135.746 214.141H137.223C136.895 215.344 135.746 216.15 134.119 216.15ZM132.055 211.639H135.883C135.883 210.504 135.158 209.684 134.037 209.684C132.868 209.684 132.109 210.586 132.055 211.639ZM140.23 211.598V216H138.768V208.576H140.176V209.793H140.258C140.613 209 141.338 208.48 142.445 208.48C143.977 208.48 144.975 209.438 144.975 211.283V216H143.525V211.461C143.525 210.381 142.938 209.738 141.953 209.738C140.955 209.738 140.23 210.408 140.23 211.598ZM150.225 208.576V209.738H148.707V213.812C148.707 214.646 149.131 214.797 149.596 214.811C149.801 214.811 150.129 214.783 150.334 214.77V216.041C150.129 216.068 149.814 216.096 149.418 216.096C148.27 216.096 147.244 215.467 147.258 214.113V209.738H146.164V208.576H147.258V206.799H148.707V208.576H150.225ZM155.693 210.6C155.557 210.012 155.092 209.629 154.285 209.629C153.451 209.629 152.85 210.066 152.863 210.627C152.85 211.064 153.205 211.379 154.025 211.57L155.201 211.844C156.568 212.145 157.225 212.801 157.238 213.854C157.225 215.193 156.104 216.15 154.203 216.15C152.426 216.15 151.359 215.357 151.182 213.977H152.672C152.795 214.646 153.314 214.975 154.189 214.975C155.133 214.975 155.734 214.592 155.748 213.963C155.734 213.484 155.379 213.17 154.6 212.992L153.438 212.746C152.098 212.445 151.4 211.734 151.4 210.709C151.4 209.383 152.549 208.48 154.271 208.48C155.926 208.48 156.951 209.328 157.102 210.6H155.693Z" fill="#57157E"/>
<defs>
<linearGradient id="paint0_linear_164_189" x1="2.93276e-07" y1="16.7051" x2="26.3141" y2="73.6038" gradientUnits="userSpaceOnUse">
<stop stop-color="#8031FF"/>
<stop offset="1" stop-color="#5016AD"/>
</linearGradient>
<linearGradient id="paint1_linear_164_189" x1="-5.25997e-07" y1="22.6425" x2="64" y2="22.6425" gradientUnits="userSpaceOnUse">
<stop stop-color="#4A13E6"/>
<stop offset="1" stop-color="#833AE1"/>
</linearGradient>
<linearGradient id="paint2_linear_164_189" x1="-5.25997e-07" y1="106.643" x2="64" y2="106.643" gradientUnits="userSpaceOnUse">
<stop stop-color="#4A13E6"/>
<stop offset="1" stop-color="#833AE1"/>
</linearGradient>
<linearGradient id="paint3_linear_164_189" x1="-5.25997e-07" y1="190.643" x2="64" y2="190.643" gradientUnits="userSpaceOnUse">
<stop stop-color="#4A13E6"/>
<stop offset="1" stop-color="#833AE1"/>
</linearGradient>
</defs>
</svg>
